<svg width="160" height="32" viewBox="0 0 160 32" fill="none" xmlns="http://www.w3.org/2000/svg">
<g clip-path="url(#clip0_4_12)">
<mask id="mask0_4_12" style="mask-type:luminance" maskUnits="userSpaceOnUse" x="-29" y="-114" width="218" height="260">
<path d="M-28.108 -113.26H188.108V145.26H-28.108V-113.26Z" fill="white"/>
</mask>
<g mask="url(#mask0_4_12)">
<path d="M24.0854 27.2176C23.4123 27.2176 22.865 26.5628 22.865 25.7584C22.865 24.9536 23.4123 24.2992 24.0854 24.2992C24.7586 24.2992 25.3058 24.9536 25.3058 25.7584C25.3058 26.5628 24.7586 27.2176 24.0854 27.2176ZM22.5366 7.43084C22.5961 7.42035 22.6556 7.41533 22.7147 7.41533C22.976 7.41533 23.2292 7.5152 23.4424 7.70535C23.7037 7.93882 23.8734 8.27945 23.9203 8.66523C24.0168 9.46186 23.5538 10.2038 22.8879 10.3196C22.2224 10.435 21.6011 9.88139 21.5042 9.08521C21.4077 8.28857 21.8707 7.54666 22.5366 7.43084ZM15.613 18.1779C15.613 18.9827 15.0654 19.6375 14.3922 19.6375C13.7191 19.6375 13.1718 18.9827 13.1718 18.1779C13.1718 17.3735 13.7191 16.7187 14.3922 16.7187C15.0654 16.7187 15.613 17.3735 15.613 18.1779ZM40.5474 15.4542C38.8155 12.1938 35.7488 10.2799 32.5441 10.1746C24.9256 9.92379 20.4325 19.1469 15.5135 24.5701C13.7443 26.52 11.53 28.6171 9.02773 28.8442C6.79245 29.0471 4.34398 27.6914 3.18077 25.3417C1.33107 21.6034 3.08962 16.7009 6.71579 16.0105C8.59982 15.6516 10.2501 16.4651 11.7451 17.6608C11.7222 17.8295 11.7069 18.0019 11.7069 18.1779C11.7069 19.9485 12.9117 21.3886 14.3922 21.3886C15.8731 21.3886 17.0775 19.9485 17.0775 18.1779C17.0775 16.4077 15.8731 14.9676 14.3922 14.9676C14.0051 14.9676 13.6379 15.0679 13.3049 15.2449C9.76379 12.6402 9.70658 6.01176 13.6714 3.5945C16.5604 1.83388 19.6267 3.45906 20.9978 6.40985C20.3044 7.1016 19.9158 8.19236 20.055 9.33692C20.2487 10.9329 21.3994 12.0862 22.7105 12.0862C22.8387 12.0862 22.968 12.0748 23.0984 12.0524C24.5637 11.798 25.5823 10.1655 25.3695 8.41352C25.2166 7.15541 24.4687 6.17683 23.5175 5.81659C21.7048 0.925978 16.5215 -1.70287 12.2042 1.22694C9.59751 2.99577 7.96291 6.55349 8.17724 10.1413C8.23979 11.186 8.43925 12.1737 8.75046 13.0898C5.84929 12.7227 2.88978 13.9813 1.22619 16.9891C-0.680333 20.436 -0.293994 25.0799 1.902 28.1825C3.48664 30.4211 6.08461 31.7708 8.53384 31.7822C14.859 31.8114 18.9597 24.1465 22.9127 19.4118C25.2803 16.5764 28.2886 13.305 31.8164 13.103C34.8991 12.9266 38.0444 14.9056 39.097 18.5171C40.1801 22.2335 38.6702 26.6125 35.7084 28.3453C32.5239 30.2086 29.4576 28.3558 26.7436 26.1889C26.7597 26.0475 26.7707 25.9048 26.7707 25.7584C26.7707 23.9878 25.5659 22.5477 24.0854 22.5477C22.6049 22.5477 21.4001 23.9878 21.4001 25.7584C21.4001 27.5286 22.6049 28.9691 24.0854 28.9691C24.5484 28.9691 24.9843 28.8282 25.365 28.5802C27.757 30.5009 30.2993 32.1675 33.2931 31.9865C36.5608 31.7891 39.4928 29.5077 40.9184 25.9659C42.2678 22.6139 42.2376 18.6366 40.5474 15.4542Z" fill="#2B93DD"/>
<path d="M65.031 29.8824C64.8063 29.8824 64.6244 29.6649 64.6244 29.3963V20.9694C64.6244 20.0752 64.5798 19.378 64.4917 18.8782C64.4028 18.3784 64.2682 18.0396 64.0874 17.8613C63.9067 17.6835 63.6069 17.5946 63.1889 17.5946C62.7145 17.5946 62.2118 17.8061 61.6809 18.2288C61.192 18.6192 60.7336 19.0907 60.3057 19.6438C60.2359 19.7341 60.1974 19.8549 60.1974 19.9785V29.3963C60.1974 29.6649 60.0154 29.8824 59.7908 29.8824H57.4918C57.2676 29.8824 57.0857 29.6649 57.0857 29.3963V20.9694C57.0857 19.9886 57.0494 19.2799 56.977 18.8422C56.9045 18.4049 56.7756 18.0875 56.591 17.89C56.4057 17.693 56.0922 17.5946 55.6501 17.5946C55.2638 17.5946 54.8176 17.7701 54.3111 18.1212C53.8371 18.4496 53.3245 18.9566 52.773 19.6425C52.7002 19.7332 52.6586 19.8568 52.6586 19.9826V29.3963C52.6586 29.6649 52.4767 29.8824 52.252 29.8824H49.9531C49.7284 29.8824 49.5461 29.6649 49.5461 29.3963V15.2393C49.5461 14.9707 49.7284 14.7532 49.9531 14.7532H52.252C52.4767 14.7532 52.6586 14.9707 52.6586 15.2393V15.5653C52.6586 15.984 53.0701 16.2024 53.334 15.9274C53.7051 15.5407 54.0872 15.217 54.4797 14.9552C55.1151 14.532 55.8187 14.3209 56.591 14.3209C57.6444 14.3209 58.422 14.5371 58.9247 14.9698C59.2862 15.2808 59.5654 15.699 59.763 16.2238C59.8755 16.5239 60.2035 16.5941 60.406 16.372C60.9624 15.7619 61.4899 15.2899 61.9887 14.9552C62.6199 14.532 63.3575 14.3209 64.2022 14.3209C65.4326 14.3209 66.3288 14.7391 66.8921 15.5754C67.4547 16.4117 67.7361 17.8162 67.7361 19.7865V29.3963C67.7361 29.6649 67.5542 29.8824 67.3296 29.8824H65.031Z" fill="#0A2435"/>
<path d="M78.6039 20.7243C78.84 20.7243 79.0288 20.4831 79.0108 20.2017C78.8888 18.2523 78.0536 17.2774 76.5055 17.2774C75.9506 17.2774 75.4964 17.3905 75.1425 17.6162C74.7889 17.8424 74.5052 18.1785 74.292 18.6258C74.125 18.9765 73.9865 19.4826 73.8763 20.1438C73.8263 20.4434 74.0205 20.7243 74.2756 20.7243H78.6039ZM74.1486 23.2911C73.9072 23.2911 73.7165 23.5433 73.7432 23.8301C73.8435 24.8986 74.1047 25.6852 74.5273 26.1899C75.0178 26.7768 75.7901 27.07 76.8434 27.07C77.4544 27.07 77.9914 26.9788 78.4536 26.796C78.8178 26.6523 79.1458 26.4038 79.4376 26.0513C79.5779 25.8821 79.7995 25.8571 79.9616 25.9952L81.6397 27.4271C81.8334 27.5926 81.8674 27.9209 81.7148 28.1398C81.2511 28.8069 80.6828 29.3204 80.0097 29.6806C79.2015 30.1134 78.0978 30.3295 76.6985 30.3295C74.6158 30.3295 73.062 29.6756 72.0365 28.3683C71.0114 27.0609 70.4988 25.0851 70.4988 22.4407C70.4988 17.0275 72.5251 14.3207 76.578 14.3207C78.3793 14.3207 79.7522 14.929 80.6973 16.1452C81.642 17.3613 82.1145 19.1329 82.1145 21.4594V22.8051C82.1145 23.0736 81.9326 23.2911 81.708 23.2911H74.1486Z" fill="#0A2435"/>
<path d="M109.72 27.4312C109.914 27.5944 109.95 27.9214 109.801 28.1416C109.357 28.7914 108.809 29.2999 108.156 29.666C107.369 30.1084 106.372 30.3295 105.166 30.3295C103.123 30.3295 101.579 29.6638 100.533 28.3322C99.4881 27.0003 98.9656 25.0271 98.9656 22.4115C98.9656 19.8638 99.4721 17.8784 100.485 16.4552C101.498 15.0321 103.018 14.3207 105.045 14.3207C106.131 14.3207 107.097 14.5323 107.946 14.9554C108.655 15.3093 109.223 15.8246 109.648 16.5017C109.786 16.7202 109.745 17.0334 109.558 17.1921L107.87 18.6326C107.704 18.7745 107.477 18.7439 107.338 18.5656C107.11 18.2756 106.857 18.0508 106.577 17.8903C106.199 17.6737 105.712 17.5656 105.117 17.5656C104.055 17.5656 103.3 17.955 102.85 18.7339C102.399 19.5127 102.174 20.7198 102.174 22.3541C102.174 23.9888 102.405 25.1831 102.867 25.9378C103.33 26.6929 104.12 27.07 105.238 27.07C105.721 27.07 106.162 26.9884 106.565 26.8247C106.883 26.6952 107.189 26.4426 107.482 26.0655C107.62 25.8881 107.846 25.8575 108.012 25.9966L109.72 27.4312Z" fill="#0A2435"/>
<path d="M127.276 22.3539C127.276 20.6909 127.059 19.4765 126.624 18.7123C126.19 17.9476 125.462 17.5659 124.441 17.5659C123.428 17.5659 122.696 17.9576 122.246 18.741C121.795 19.5249 121.57 20.7292 121.57 22.3539C121.57 23.9691 121.793 25.1592 122.24 25.9235C122.686 26.6878 123.42 27.0699 124.441 27.0699C125.446 27.0699 126.17 26.6928 126.612 25.9376C127.054 25.1829 127.276 23.9887 127.276 22.3539ZM130.496 22.3539C130.496 24.8733 130.01 26.8323 129.037 28.2309C128.064 29.6303 126.532 30.3294 124.441 30.3294C120.388 30.3294 118.362 27.6713 118.362 22.3539C118.362 19.7962 118.848 17.8181 119.822 16.4191C120.794 15.02 122.334 14.3205 124.441 14.3205C126.532 14.3205 128.064 15.02 129.037 16.4191C130.01 17.8181 130.496 19.7962 130.496 22.3539Z" fill="#0A2435"/>
<path d="M141.412 29.3963V29.0411C141.412 28.633 141.02 28.41 140.753 28.6649C140.352 29.0466 139.902 29.3776 139.404 29.659C138.612 30.1059 137.85 30.3293 137.118 30.3293C135.687 30.3293 134.686 29.856 134.115 28.9089C133.544 27.9622 133.259 26.6134 133.259 24.8637V15.2393C133.259 14.9707 133.441 14.7532 133.665 14.7532H135.964C136.189 14.7532 136.371 14.9707 136.371 15.2393V23.0894C136.371 24.1569 136.423 24.974 136.527 25.5408C136.632 26.1086 136.803 26.5003 137.04 26.7169C137.277 26.933 137.625 27.0411 138.083 27.0411C138.976 27.0411 140.042 26.3644 141.279 25.011C141.364 24.9189 141.412 24.7857 141.412 24.6494V15.2393C141.412 14.9707 141.595 14.7532 141.819 14.7532H144.118C144.343 14.7532 144.525 14.9707 144.525 15.2393V29.3963C144.525 29.6649 144.343 29.8824 144.118 29.8824H141.819C141.595 29.8824 141.412 29.6649 141.412 29.3963Z" fill="#0A2435"/>
<path d="M112.622 8.99343H115.093C115.232 8.99343 115.345 9.12841 115.345 9.2953V25.7816C115.367 27.1851 115.908 28.1925 116.928 28.8938C117.069 28.9905 117.093 29.2226 116.98 29.3616L115.429 31.2636C115.363 31.3457 115.262 31.3785 115.171 31.3421C113.439 30.653 112.37 28.4223 112.37 26.1642V9.2953C112.37 9.12841 112.482 8.99343 112.622 8.99343Z" fill="#0A2435"/>
<path d="M92.9824 25.3391C92.9824 25.4814 92.9332 25.6195 92.8417 25.7107C92.4931 26.0609 92.0835 26.3601 91.6136 26.6095C91.0785 26.8932 90.5541 27.035 90.0397 27.035C89.1709 27.035 88.5294 26.6214 88.1156 25.7946C87.701 24.9675 87.4943 23.8284 87.4943 22.3765C87.4943 20.9049 87.7476 19.7394 88.254 18.8789C88.7609 18.0185 89.4321 17.588 90.2685 17.588C90.775 17.588 91.2719 17.7248 91.7585 17.9993C92.1769 18.2346 92.5373 18.5009 92.8398 18.7973C92.9324 18.888 92.9824 19.0267 92.9824 19.1703V25.3391ZM97.5193 28.2698C96.7287 27.6934 96.2508 26.9155 96.0949 25.8982V8.88703C96.0949 8.6189 95.9125 8.40093 95.6883 8.40093H93.389C93.1647 8.40093 92.9824 8.6189 92.9824 8.88703V14.8985C92.9824 15.2834 92.6304 15.51 92.3573 15.3062C92.0797 15.0982 91.7692 14.9145 91.4267 14.7539C90.7994 14.4612 90.188 14.3144 89.5931 14.3144C87.9123 14.3144 86.6076 15.0257 85.679 16.4484C84.7503 17.8721 84.2858 19.8671 84.2858 22.4339C84.2858 24.9433 84.708 26.8859 85.5523 28.2607C86.3963 29.6355 87.6148 30.3232 89.2071 30.3232C90.0275 30.3232 90.7589 30.1504 91.4023 29.8038C91.8161 29.5813 92.2162 29.3095 92.6029 28.9876C92.8703 28.7655 93.4153 28.2762 93.8642 28.8877L93.8657 28.885C94.3367 29.7454 94.9969 30.4267 95.8073 30.7664C95.9301 30.818 96.067 30.7733 96.1578 30.6615L97.5895 28.9055C97.7436 28.7162 97.7077 28.4075 97.5193 28.2698Z" fill="#0A2435"/>
<path d="M155.296 25.3099C155.296 25.4522 155.247 25.5903 155.156 25.6815C154.807 26.0317 154.398 26.3309 153.928 26.5803C153.393 26.8639 152.868 27.0058 152.354 27.0058C151.485 27.0058 150.843 26.5922 150.43 25.7654C150.015 24.9382 149.808 23.7992 149.808 22.3472C149.808 20.8757 150.062 19.7102 150.568 18.8497C151.075 17.9892 151.746 17.5588 152.583 17.5588C153.089 17.5588 153.586 17.6956 154.073 17.9701C154.491 18.2054 154.851 18.4717 155.154 18.7681C155.247 18.8588 155.296 18.9975 155.296 19.1411V25.3099ZM159.833 28.2406C159.043 27.6642 158.565 26.8863 158.409 25.8689V8.85782C158.409 8.58969 158.227 8.37172 158.002 8.37172H155.703C155.479 8.37172 155.296 8.58969 155.296 8.85782V14.8693C155.296 15.2546 154.944 15.4808 154.671 15.2769C154.394 15.069 154.083 14.8852 153.741 14.7247C153.113 14.432 152.502 14.2851 151.907 14.2851C150.226 14.2851 148.922 14.9965 147.993 16.4192C147.064 17.8429 146.6 19.8379 146.6 22.4047C146.6 24.9141 147.022 26.8566 147.866 28.2315C148.71 29.6063 149.929 30.294 151.521 30.294C152.342 30.294 153.073 30.1212 153.716 29.7746C154.13 29.5525 154.53 29.2803 154.917 28.9584C155.184 28.7363 155.729 28.247 156.178 28.8585L156.18 28.8558C156.651 29.7162 157.311 30.398 158.121 30.7377C158.244 30.7892 158.381 30.7441 158.472 30.6323L159.904 28.8763C160.058 28.687 160.022 28.3783 159.833 28.2406Z" fill="#0A2435"/>
</g>
</g>
<defs>
<clipPath id="clip0_4_12">
<rect width="160" height="32" fill="white"/>
</clipPath>
</defs>
</svg>
